# xmcd
#
# Track frame offsets: 
#        150
#        21571
#        35509
#        55482
#        67549
#        82914
#        97722
#        111329
#        118417
#        127713
#        142897
#        150769
#        161857
#        172895
#        182232
#        193520
#        201957
#        210775
#        221536
#        229146
#        249564
#        264315
#        278191
#        291274
#        302813
#        311933
#        320771
#        330556
#        342853
#
# Disc length: 4796 seconds
#
# Revision: 2
# Processed by: cddbd v1.5.2PL0 Copyright (c) Steve Scherf et al.
# Submitted via: ExactAudioCopy v1.3
#
DISCID=9f12ba1d
DTITLE=Андрей Макаревич - Избранное CD-2
DYEAR=1999
DGENRE=Ballad
TTITLE0=Перекрёсток
TTITLE1=Где его носит теперь
TTITLE2=Мы будем вместе
TTITLE3=Отпусти меня
TTITLE4=По назначенью
TTITLE5=Воды нашей реки (Б. Окуджаве)
TTITLE6=Пора в обратный путь
TTITLE7=Наверно, без нас
TTITLE8=Посвящение театру
TTITLE9=Когда её нет
TTITLE10=Музыканты уходят из мира
TTITLE11=Не плачь, мой друг, не плачь
TTITLE12=Лица
TTITLE13=Я рисую тебя
TTITLE14=Там, где светел день
TTITLE15=Братский вальсок
TTITLE16=Поздравительная
TTITLE17=Возникает из недотёпости
TTITLE18=Хватит о дальнем береге
TTITLE19=Пооткрывали вновь церквей...
TTITLE20=Соловки
TTITLE21=До скорого, брат (памяти М. Науменко)
TTITLE22=Раз артист- так с песнею (посвящение А. Розенбауму)
TTITLE23=Монолог гражданина, пожелавшего остаться неизвестным
TTITLE24=Я с детских лет не в силах разобраться
TTITLE25=Аэрофлотская
TTITLE26=Не маячит надежда мне
TTITLE27=Посвящение архитектурному
TTITLE28=Я смысл этой жизни вижу в том
EXTD=
EXTT0=
EXTT1=
EXTT2=
EXTT3=
EXTT4=
EXTT5=
EXTT6=
EXTT7=
EXTT8=
EXTT9=
EXTT10=
EXTT11=
EXTT12=
EXTT13=
EXTT14=
EXTT15=
EXTT16=
EXTT17=
EXTT18=
EXTT19=
EXTT20=
EXTT21=
EXTT22=
EXTT23=
EXTT24=
EXTT25=
EXTT26=
EXTT27=
EXTT28=
PLAYORDER=
